<svg xmlns="http://www.w3.org/2000/svg" width="100" height="100" viewBox="0 0 24 24">
  <rect width="24" height="24" rx="6" fill="#206bc4" />
  <g transform="translate(4, 4) scale(0.66)" fill="none" stroke="white" stroke-width="2" stroke-linecap="round" stroke-linejoin="round">
    <path d="M14 3v4a1 1 0 0 0 1 1h4" />
    <path d="M17 21h-10a2 2 0 0 1 -2 -2v-14a2 2 0 0 1 2 -2h7l5 5v11a2 2 0 0 1 -2 2z" />
    <path d="M9 7l1 0" />
    <path d="M9 13l6 0" />
    <path d="M13 17l2 0" />
  </g>
</svg>
